<?xml version="1.0" standalone="no"?>
<!DOCTYPE svg PUBLIC "-//W3C//DTD SVG 20010904//EN"
 "http://www.w3.org/TR/2001/REC-SVG-20010904/DTD/svg10.dtd">
<svg version="1.0" xmlns="http://www.w3.org/2000/svg"
 width="16.000000pt" height="16.000000pt" viewBox="0 0 16.000000 16.000000"
 preserveAspectRatio="xMidYMid meet">
<metadata>
Created by potrace 1.11, written by Peter Selinger 2001-2013
</metadata>
<g transform="translate(0.000000,16.000000) scale(0.004432,-0.004432)"
fill="#000000" stroke="none">
<path d="M1759 3583 c-24 -14 -62 -35 -84 -48 -22 -12 -79 -45 -127 -74 -48
-28 -89 -51 -93 -51 -3 0 -18 -8 -33 -19 -33 -22 -201 -121 -206 -121 -2 0
-51 -28 -108 -62 -56 -33 -121 -71 -143 -84 -22 -12 -78 -44 -125 -71 l-85
-50 -1 -1186 -2 -1186 42 -25 c22 -13 57 -33 76 -44 19 -10 76 -43 125 -72 50
-29 105 -61 123 -72 28 -15 193 -110 327 -188 203 -117 369 -212 379 -216 11
-4 13 109 12 595 l-1 600 25 14 c14 8 50 28 80 45 30 16 91 51 135 77 44 27
98 58 120 70 22 12 178 102 346 199 l306 177 -1 606 -1 606 -180 104 c-99 58
-198 115 -220 127 -22 13 -85 49 -140 81 -55 32 -116 67 -135 78 -19 10 -72
41 -118 68 -45 27 -85 49 -87 49 -3 0 -41 22 -84 49 l-78 49 -44 -25z"/>
</g>
</svg>
